<svg xmlns="http://www.w3.org/2000/svg" width="18" height="20" viewBox="0 0 18 20">
  <metadata><?xpacket begin="﻿" id="W5M0MpCehiHzreSzNTczkc9d"?>
<x:xmpmeta xmlns:x="adobe:ns:meta/" x:xmptk="Adobe XMP Core 5.6-c138 79.159824, 2016/09/14-01:09:01        ">
   <rdf:RDF xmlns:rdf="http://www.w3.org/1999/02/22-rdf-syntax-ns#">
      <rdf:Description rdf:about=""/>
   </rdf:RDF>
</x:xmpmeta>
                                                                                                    
                                                                                                    
                                                                                                    
                                                                                                    
                                                                                                    
                                                                                                    
                                                                                                    
                                                                                                    
                                                                                                    
                                                                                                    
                                                                                                    
                                                                                                    
                                                                                                    
                                                                                                    
                                                                                                    
                                                                                                    
                                                                                                    
                                                                                                    
                                                                                                    
                                                                                                    
                           
<?xpacket end="w"?></metadata>
<defs>
    <style>
      .cls-1 {
        fill: #333;
        fill-rule: evenodd;
      }
    </style>
  </defs>
  <path id="Account" class="cls-1" d="M16.751,20V19.643A6.546,6.546,0,0,0,10,13.34a6.546,6.546,0,0,0-6.751,6.3V20H1V19.643a8.128,8.128,0,0,1,2.642-5.972A9.254,9.254,0,0,1,10,11.205a9.254,9.254,0,0,1,6.358,2.466A8.128,8.128,0,0,1,19,19.643V20H16.751ZM10,9.172a4.587,4.587,0,1,1,4.6-4.586A4.6,4.6,0,0,1,10,9.172Zm0-7.037a2.451,2.451,0,1,0,2.459,2.451A2.458,2.458,0,0,0,10,2.135Z" transform="translate(-1)"/>
</svg>
