<svg xmlns="http://www.w3.org/2000/svg" width="16" height="18" viewBox="0 0 16 18">
  <metadata><?xpacket begin="﻿" id="W5M0MpCehiHzreSzNTczkc9d"?>
<x:xmpmeta xmlns:x="adobe:ns:meta/" x:xmptk="Adobe XMP Core 5.6-c138 79.159824, 2016/09/14-01:09:01        ">
   <rdf:RDF xmlns:rdf="http://www.w3.org/1999/02/22-rdf-syntax-ns#">
      <rdf:Description rdf:about=""/>
   </rdf:RDF>
</x:xmpmeta>
                                                                                                    
                                                                                                    
                                                                                                    
                                                                                                    
                                                                                                    
                                                                                                    
                                                                                                    
                                                                                                    
                                                                                                    
                                                                                                    
                                                                                                    
                                                                                                    
                                                                                                    
                                                                                                    
                                                                                                    
                                                                                                    
                                                                                                    
                                                                                                    
                                                                                                    
                                                                                                    
                           
<?xpacket end="w"?></metadata>
<defs>
    <style>
      .cls-1 {
        fill: #999;
        fill-rule: evenodd;
      }
    </style>
  </defs>
  <path id="Account" class="cls-1" d="M16,19V18.679a5.85,5.85,0,0,0-6-5.673,5.85,5.85,0,0,0-6,5.673V19H2V18.679A7.356,7.356,0,0,1,4.348,13.3,8.169,8.169,0,0,1,10,11.084,8.168,8.168,0,0,1,15.652,13.3,7.356,7.356,0,0,1,18,18.679V19H16ZM10,9.255a4.128,4.128,0,1,1,4.09-4.128A4.114,4.114,0,0,1,10,9.255Zm0-6.334a2.206,2.206,0,1,0,2.186,2.206A2.2,2.2,0,0,0,10,2.921Z" transform="translate(-2 -1)"/>
</svg>
