<svg xmlns="http://www.w3.org/2000/svg" width="52" height="59" viewBox="0 0 52 59">
  <metadata><?xpacket begin="﻿" id="W5M0MpCehiHzreSzNTczkc9d"?>
<x:xmpmeta xmlns:x="adobe:ns:meta/" x:xmptk="Adobe XMP Core 5.6-c138 79.159824, 2016/09/14-01:09:01        ">
   <rdf:RDF xmlns:rdf="http://www.w3.org/1999/02/22-rdf-syntax-ns#">
      <rdf:Description rdf:about=""/>
   </rdf:RDF>
</x:xmpmeta>
                                                                                                    
                                                                                                   
                           
<?xpacket end="w"?></metadata>
<defs>
    <style>
      .cls-1 {
        fill-rule: evenodd;
        opacity: 0.03;
      }
    </style>
  </defs>
  <path id="Account_icon" data-name="Account icon" class="cls-5" d="M1495.5,89V87.945c0-10.251-8.75-18.593-19.5-18.593s-19.5,8.342-19.5,18.593V89H1450V87.945a24.211,24.211,0,0,1,7.63-17.617,26.832,26.832,0,0,1,36.74,0A24.211,24.211,0,0,1,1502,87.945V89h-6.5ZM1476,57.059a13.533,13.533,0,1,1,13.29-13.532A13.427,13.427,0,0,1,1476,57.059Zm0-20.761a7.231,7.231,0,1,0,7.1,7.229A7.171,7.171,0,0,0,1476,36.3Z" transform="translate(-1450 -30)"/>
</svg>
