<svg xmlns="http://www.w3.org/2000/svg" width="20" height="20" viewBox="0 0 20 20">
  <metadata><?xpacket begin="﻿" id="W5M0MpCehiHzreSzNTczkc9d"?>
<x:xmpmeta xmlns:x="adobe:ns:meta/" x:xmptk="Adobe XMP Core 5.6-c138 79.159824, 2016/09/14-01:09:01        ">
   <rdf:RDF xmlns:rdf="http://www.w3.org/1999/02/22-rdf-syntax-ns#">
      <rdf:Description rdf:about=""/>
   </rdf:RDF>
</x:xmpmeta>
                                                                                                    
                                                                                                    
                                                                                                    
                                                                                                    
                                                                                                    
                                                                                                    
                                                                                                    
                                                                                                    
                                                                                                    
                                                                                                    
                                                                                                    
                                                                                                    
                                                                                                    
                                                                                                    
                                                                                                    
                                                                                                    
                                                                                                    
                                                                                                    
                                                                                                    
                                                                                                    
                           
<?xpacket end="w"?></metadata>
<defs>
    <style>
      .cls-1 {
        fill: #333;
        fill-rule: evenodd;
      }
    </style>
  </defs>
  <path id="Add_to_bag_" data-name="Add to bag " class="cls-1" d="M19.065,7.442H16.03L11.391,0.775A1.761,1.761,0,0,0,9.934,0h0A1.759,1.759,0,0,0,8.477.774L3.83,7.442H0.935a0.918,0.918,0,0,0-.935.9V8.669a12.062,12.062,0,0,0,2.914,8A9.385,9.385,0,0,0,10,20a9.386,9.386,0,0,0,7.086-3.334,12.063,12.063,0,0,0,2.915-8V8.342A0.918,0.918,0,0,0,19.065,7.442ZM9.887,1.686a0.169,0.169,0,0,1,.046-0.048,0.172,0.172,0,0,1,.046.049l4.005,5.756H5.876ZM10,17.969c-4.318,0-7.86-3.865-8.12-8.726H18.12C17.86,14.1,14.317,17.969,10,17.969Z"/>
</svg>
