<svg xmlns="http://www.w3.org/2000/svg" width="59" height="59" viewBox="0 0 59 59">
  <metadata><?xpacket begin="﻿" id="W5M0MpCehiHzreSzNTczkc9d"?>
<x:xmpmeta xmlns:x="adobe:ns:meta/" x:xmptk="Adobe XMP Core 5.6-c138 79.159824, 2016/09/14-01:09:01        ">
   <rdf:RDF xmlns:rdf="http://www.w3.org/1999/02/22-rdf-syntax-ns#">
      <rdf:Description rdf:about=""/>
   </rdf:RDF>
</x:xmpmeta>
                                                                                                    
                                                                                                    
                                                                                             
                                                                                                    
                                                                                                    
                                                                                                    
                           
<?xpacket end="w"?></metadata>
<defs>
    <style>
      .cls-2 {
        fill-rule: evenodd;
        opacity: 0.03;
      }
    </style>
  </defs>
  <path id="Cart_icon" data-name="Cart icon" class="cls-2" d="M1506.24,51.955h-8.95L1483.6,32.288a5.19,5.19,0,0,0-4.29-2.29h-0.01a5.189,5.189,0,0,0-4.29,2.287l-13.71,19.67h-8.54a2.707,2.707,0,0,0-2.76,2.656v0.966a35.56,35.56,0,0,0,8.6,23.588,27.127,27.127,0,0,0,41.8,0,35.56,35.56,0,0,0,8.6-23.588V54.611A2.713,2.713,0,0,0,1506.24,51.955Zm-27.07-16.98a0.621,0.621,0,0,1,.13-0.143,0.443,0.443,0,0,1,.14.143l11.82,16.98h-23.93Zm0.33,48.035c-12.74,0-23.19-11.4-23.95-25.742h47.9C1502.69,71.61,1492.24,83.01,1479.5,83.01Z" transform="translate(-1450 -30)"/>
</svg>
