<svg xmlns="http://www.w3.org/2000/svg" width="15" height="19" viewBox="0 0 15 19">
  <metadata><?xpacket begin="﻿" id="W5M0MpCehiHzreSzNTczkc9d"?>
<x:xmpmeta xmlns:x="adobe:ns:meta/" x:xmptk="Adobe XMP Core 5.6-c138 79.159824, 2016/09/14-01:09:01        ">
   <rdf:RDF xmlns:rdf="http://www.w3.org/1999/02/22-rdf-syntax-ns#">
      <rdf:Description rdf:about=""/>
   </rdf:RDF>
</x:xmpmeta>
                                                                                                    
                                                                                                    
                                                                                                    
                                                                                                    
                                                                                                    
                                                                                                    
                                                                                                    
                                                                                                    
                                                                                                    
                                                                                                    
                                                                                                    
                                                                                                    
                                                                                                    
                                                                                                    
                                                                                                    
                                                                                                    
                                                                                                    
                                                                                                    
                                                                                                    
                                                                                                    
                           
<?xpacket end="w"?></metadata>
<defs>
    <style>
      .cls-1 {
        fill: #777;
        fill-rule: evenodd;
      }
    </style>
  </defs>
  <path class="cls-1" d="M9.5,20a0.746,0.746,0,0,1-.471-0.17,21,21,0,0,1-6.344-7.963,7.653,7.653,0,0,1-.5-1.509c-0.025-.115-0.045-0.213-0.052-0.26A7.711,7.711,0,0,1,2,8.664,7.59,7.59,0,0,1,9.5,1,7.6,7.6,0,0,1,17,8.664a8.037,8.037,0,0,1-.132,1.434c-0.007.046-.026,0.142-0.052,0.261a7.608,7.608,0,0,1-.5,1.509A21.019,21.019,0,0,1,9.971,19.83,0.747,0.747,0,0,1,9.5,20ZM4.044,11.216l0.018,0.043A18.984,18.984,0,0,0,9.5,18.242a18.977,18.977,0,0,0,5.434-6.983l0.019-.046,0,0a6.022,6.022,0,0,0,.387-1.163V10.039l0.005-.025c0.016-.074.026-0.126,0.031-0.151l0-.011,0-.023a6.226,6.226,0,0,0,.109-1.168,6.072,6.072,0,0,0-6-6.131,6.072,6.072,0,0,0-6,6.131,6.248,6.248,0,0,0,.109,1.165l0,0.023V9.853l0,0.022c0,0.026.012,0.069,0.027,0.128l0.008,0.03v0.011a6.411,6.411,0,0,0,.389,1.167ZM9.5,12.528a3.783,3.783,0,1,1,3.7-3.783A3.746,3.746,0,0,1,9.5,12.528Zm0-6.337A2.555,2.555,0,1,0,12,8.746,2.53,2.53,0,0,0,9.5,6.191Z" transform="translate(-2 -1)"/>
</svg>
