<svg xmlns="http://www.w3.org/2000/svg" width="49" height="34" viewBox="0 0 49 34">
  <metadata><?xpacket begin="﻿" id="W5M0MpCehiHzreSzNTczkc9d"?>
<x:xmpmeta xmlns:x="adobe:ns:meta/" x:xmptk="Adobe XMP Core 5.6-c138 79.159824, 2016/09/14-01:09:01        ">
   <rdf:RDF xmlns:rdf="http://www.w3.org/1999/02/22-rdf-syntax-ns#">
      <rdf:Description rdf:about=""/>
   </rdf:RDF>
</x:xmpmeta>
                                                                                                    
                                                                                                    
                                                                                                    
                                                                                                    
                                                                                                    
                                                                                                    
                                                                                                    
                                                                                                    
                                                                                                    
                                                                                                    
                                                                                                    
                                                                                                    
                                                                                                    
                                                                                                    
                                                                                                    
                                                                                                    
                                                                                                    
                                                                                                    
                                                                                                    
                                                                                                    
                           
<?xpacket end="w"?></metadata>
<defs>
    <style>
      .cls-1 {
        fill: #555;
        fill-rule: evenodd;
      }
    </style>
  </defs>
  <path id="icon" class="cls-1" d="M458.007,3167.64a6.18,6.18,0,1,0,6.177,6.18A6.183,6.183,0,0,0,458.007,3167.64Zm0,9.27a3.09,3.09,0,1,1,3.089-3.09A3.095,3.095,0,0,1,458.007,3176.91Zm-21.1-9.27a6.18,6.18,0,1,0,6.177,6.18A6.184,6.184,0,0,0,436.9,3167.64Zm0,9.27a3.09,3.09,0,1,1,3.089-3.09A3.095,3.095,0,0,1,436.9,3176.91Zm25.263-26.97a1.549,1.549,0,0,0-1.38-.85h-8.133v3.09h7.18l4.2,8.37,2.76-1.39Zm-20.476,22.38h11.684v3.09H441.691v-3.09Zm-9.419,0h-5.353a1.545,1.545,0,0,0,0,3.09h5.353A1.545,1.545,0,0,0,432.272,3172.32Zm37.4-9.44-3.038-3.92a1.534,1.534,0,0,0-1.219-.6H454.2v-10.82a1.542,1.542,0,0,0-1.544-1.54H426.919a1.545,1.545,0,0,0,0,3.09H451.11v10.82a1.543,1.543,0,0,0,1.544,1.54h12.009l2.249,2.9v7.97H462.64a1.545,1.545,0,0,0,0,3.09h5.816a1.542,1.542,0,0,0,1.544-1.54v-10.05A1.53,1.53,0,0,0,469.676,3162.88Zm-37.507,1.61h-7.1a1.545,1.545,0,0,0,0,3.09h7.1A1.545,1.545,0,0,0,432.169,3164.49Zm3.552-6.08H422.544a1.55,1.55,0,0,0,0,3.1h13.177A1.55,1.55,0,0,0,435.721,3158.41Zm2.522-6.07H425.066a1.545,1.545,0,0,0,0,3.09h13.177A1.545,1.545,0,0,0,438.243,3152.34Z" transform="translate(-421 -3146)"/>
</svg>
