<svg xmlns="http://www.w3.org/2000/svg" width="45.03" height="41" viewBox="0 0 45.03 41">
  <metadata><?xpacket begin="﻿" id="W5M0MpCehiHzreSzNTczkc9d"?>
<x:xmpmeta xmlns:x="adobe:ns:meta/" x:xmptk="Adobe XMP Core 5.6-c138 79.159824, 2016/09/14-01:09:01        ">
   <rdf:RDF xmlns:rdf="http://www.w3.org/1999/02/22-rdf-syntax-ns#">
      <rdf:Description rdf:about=""/>
   </rdf:RDF>
</x:xmpmeta>
                                                                                                    
                                                                                                    
                                                                                                    
                                                                                                    
                                                                                                    
                                                                                                    
                                                                                                    
                                                                                                    
                                                                                                    
                                                                                                    
                                                                                                    
                                                                                                    
                                                                                                    
                                                                                                    
                                                                                                    
                                                                                                    
                                                                                                    
                                                                                                    
                                                                                                    
                                                                                                    
                           
<?xpacket end="w"?></metadata>
<defs>
    <style>
      .cls-1 {
        fill: #555;
        fill-rule: evenodd;
      }
    </style>
  </defs>
  <path id="icon" class="cls-1" d="M1229.28,3149.01l-27.56-5.96a2.179,2.179,0,0,0-2.57,1.71l-0.52,3.44,31.8,6.88,0.52-3.44A2.214,2.214,0,0,0,1229.28,3149.01Zm-11.59,6.79a2.183,2.183,0,0,0-2.69-1.55l-5.23,1.48-12.34-2.67-1.35,6.56-8.48,2.4a2.248,2.248,0,0,0-1.52,2.75l4.77,17.59a2.2,2.2,0,0,0,2.7,1.56l27.39-7.77a2.254,2.254,0,0,0,1.53-2.75l-0.82-3.02,3.07,0.66a2.179,2.179,0,0,0,2.57-1.71l1.94-9.39-11.07-2.39Zm3.16,8.95,0.68-3.28a0.9,0.9,0,0,1,1.06-.7l3.2,0.69a0.92,0.92,0,0,1,.69,1.08l-0.68,3.28a0.9,0.9,0,0,1-1.06.7l-3.2-.69A0.92,0.92,0,0,1,1220.85,3164.75Zm-32.77-.98,7.58-2.15,17.89-5.07,1.92-.55a0.426,0.426,0,0,1,.5.29l0.23,0.83,0.71,2.61-28.18,7.99-0.93-3.44A0.423,0.423,0,0,1,1188.08,3163.77Zm32.67,10.11a0.45,0.45,0,0,1-.04.32,0.442,0.442,0,0,1-.24.19l-27.4,7.77a0.355,0.355,0,0,1-.1.02,0.432,0.432,0,0,1-.4-0.3l-2.78-10.27,28.17-7.99,1.72,6.33Zm-23.25.7a0.9,0.9,0,0,0-1.1-.63l-3.2.91a0.917,0.917,0,0,0-.62,1.12l0.89,3.27a0.88,0.88,0,0,0,1.09.63l3.2-.9a0.925,0.925,0,0,0,.63-1.13Z" transform="translate(-1185.97 -3143)"/>
</svg>
