<svg xmlns="http://www.w3.org/2000/svg" width="14.03" height="14" viewBox="0 0 14.03 14">
  <metadata><?xpacket begin="﻿" id="W5M0MpCehiHzreSzNTczkc9d"?>
<x:xmpmeta xmlns:x="adobe:ns:meta/" x:xmptk="Adobe XMP Core 5.6-c138 79.159824, 2016/09/14-01:09:01        ">
   <rdf:RDF xmlns:rdf="http://www.w3.org/1999/02/22-rdf-syntax-ns#">
      <rdf:Description rdf:about=""/>
   </rdf:RDF>
</x:xmpmeta>
                                                                                                    
                      
<?xpacket end="w"?></metadata>
<defs>
    <style>
      .cls-1 {
        fill-rule: evenodd;
      }
    </style>
  </defs>
  <path id="icon" class="cls-1" d="M1866.23,55l5.51-5.509a0.876,0.876,0,0,0-1.24-1.239l-5.5,5.509-5.51-5.509a0.876,0.876,0,1,0-1.24,1.239L1863.76,55l-5.51,5.509a0.88,0.88,0,0,0,0,1.239,0.9,0.9,0,0,0,.62.257,0.863,0.863,0,0,0,.62-0.257l5.51-5.509,5.5,5.509a0.863,0.863,0,0,0,.62.257,0.876,0.876,0,0,0,.62-1.5Z" transform="translate(-1858 -48)"/>
</svg>
