<svg xmlns="http://www.w3.org/2000/svg" width="20" height="16" viewBox="0 0 20 16">
  <metadata><?xpacket begin="﻿" id="W5M0MpCehiHzreSzNTczkc9d"?>
<x:xmpmeta xmlns:x="adobe:ns:meta/" x:xmptk="Adobe XMP Core 5.6-c138 79.159824, 2016/09/14-01:09:01        ">
   <rdf:RDF xmlns:rdf="http://www.w3.org/1999/02/22-rdf-syntax-ns#">
      <rdf:Description rdf:about=""/>
   </rdf:RDF>
</x:xmpmeta>
                                                                                                    
                                                                                                    
                                                                                                    
                                                                                                    
                                                                                                    
                                                                                                    
                                                                                                    
                                                                                                    
                                                                                                    
                                                                                                    
                                                                                                    
                                                                                                    
                                                                                                    
                                                                                                    
                                                                                                    
                                                                                                    
                                                                                                    
                                                                                                    
                                                                                                    
                                                                                                    
                           
<?xpacket end="w"?></metadata>
<defs>
    <style>
      .cls-1 {
        fill: #333;
        fill-rule: evenodd;
      }
    </style>
  </defs>
  <path class="cls-1" d="M10,2h0A10.181,10.181,0,0,0,2.931,4.81l0,0,0,0A9.382,9.382,0,0,0,0,11.591S0,11.6,0,11.6s0,0.005,0,.008a9.331,9.331,0,0,0,2.286,6.1A0.847,0.847,0,0,0,2.929,18H17.071a0.847,0.847,0,0,0,.643-0.291A9.332,9.332,0,0,0,20,11.6,9.806,9.806,0,0,0,10,2Zm6.667,14.4H3.333a7.768,7.768,0,0,1-1.624-4H4.167a0.8,0.8,0,1,0,0-1.6H1.708a7.8,7.8,0,0,1,1.84-4.263L4.107,7.074a0.858,0.858,0,0,0,1.178,0,0.778,0.778,0,0,0,0-1.131L4.726,5.406A8.479,8.479,0,0,1,9.166,3.64V6a0.834,0.834,0,0,0,1.667,0V3.64a8.479,8.479,0,0,1,4.44,1.766l-0.559.537a0.777,0.777,0,0,0,0,1.131,0.858,0.858,0,0,0,1.178,0l0.559-.537a7.8,7.8,0,0,1,1.84,4.263H15.833a0.8,0.8,0,1,0,0,1.6h2.459A7.768,7.768,0,0,1,16.667,16.4Zm-6.524-3.2L12.5,8.674,7.786,10.938Z" transform="translate(0 -2)"/>
</svg>
