<svg xmlns="http://www.w3.org/2000/svg" width="19.999" height="26.666" viewBox="0 0 12 16">
  <metadata><?xpacket begin="﻿" id="W5M0MpCehiHzreSzNTczkc9d"?>
<x:xmpmeta xmlns:x="adobe:ns:meta/" x:xmptk="Adobe XMP Core 5.6-c138 79.159824, 2016/09/14-01:09:01        ">
   <rdf:RDF xmlns:rdf="http://www.w3.org/1999/02/22-rdf-syntax-ns#">
      <rdf:Description rdf:about=""/>
   </rdf:RDF>
</x:xmpmeta>
                                                                                                    
                                                                                                    
                                                                                                    
                                                                                                    
                                                                                                    
                                                                                                    
                                                                                                    
                                                                                                    
                                                                                                    
                                                                                                    
                                                                                                    
                                                                                                    
                                                                                                    
                                                                                                    
                                                                                                    
                                                                                                    
                                                                                                    
                                                                                                    
                                                                                                    
                                                                                                    
                           
<?xpacket end="w"?></metadata>
<defs>
    <style>
      .cls-1 {
        fill: #999;
        fill-rule: evenodd;
      }
    </style>
  </defs>
  <path class="cls-1" d="M4.92,18a0.9,0.9,0,1,1,0-1.809H15.079a0.9,0.9,0,1,1,0,1.809H4.92ZM10,13.756l-0.076-.008A0.96,0.96,0,0,1,9.3,13.484L4.423,8.772a0.907,0.907,0,0,1,0-1.313,0.985,0.985,0,0,1,1.358,0l3.281,3.17V2.9a0.94,0.94,0,0,1,1.878,0v7.724l3.281-3.17a0.985,0.985,0,0,1,1.358,0,0.907,0.907,0,0,1,0,1.313L10.7,13.484a0.964,0.964,0,0,1-.614.263c-0.037,0-.062.006-0.087,0.009h0Zm0,0.138,0,0" transform="translate(-4 -2)"/>
</svg>
