<svg xmlns="http://www.w3.org/2000/svg" width="12" height="10" viewBox="0 0 12 10">
  <metadata><?xpacket begin="﻿" id="W5M0MpCehiHzreSzNTczkc9d"?>
<x:xmpmeta xmlns:x="adobe:ns:meta/" x:xmptk="Adobe XMP Core 5.6-c138 79.159824, 2016/09/14-01:09:01        ">
   <rdf:RDF xmlns:rdf="http://www.w3.org/1999/02/22-rdf-syntax-ns#">
      <rdf:Description rdf:about=""/>
   </rdf:RDF>
</x:xmpmeta>
                                                                                                    
                                                                                                    
                                                                                                    
                                                                                                    
                                                                                                    
                                                                                                    
                                                                                                    
                                                                                                    
                                                                                                    
                                                                                                    
                                                                                                    
                                                                                                    
                                                                                                    
                                                                                                    
                                                                                                    
                                                                                                    
                                                                                                    
                                                                                                    
                                                                                                    
                                                                                                    
                           
<?xpacket end="w"?></metadata>
<defs>
    <style>
      .cls-1 {
        fill: #333;
        fill-rule: evenodd;
      }
    </style>
  </defs>
  <path id="Email_icon" data-name="Email icon" class="cls-1" d="M1201.58,1245h-9.16a1.463,1.463,0,0,0-1.42,1.5v7a1.463,1.463,0,0,0,1.42,1.5h9.16a1.463,1.463,0,0,0,1.42-1.5v-7A1.463,1.463,0,0,0,1201.58,1245Zm0,8.67h-9.16a0.2,0.2,0,0,1-.21-0.17v-6.07l4.14,3.83a0.423,0.423,0,0,0,.3.12h0.7a0.423,0.423,0,0,0,.3-0.12l4.14-3.83v6.07A0.2,0.2,0,0,1,1201.58,1253.67Zm-4.58-3.6-4.03-3.75h8.06Z" transform="translate(-1191 -1245)"/>
</svg>
