<svg xmlns="http://www.w3.org/2000/svg" width="45" height="46.969" viewBox="0 0 45 46.969">
  <metadata><?xpacket begin="﻿" id="W5M0MpCehiHzreSzNTczkc9d"?>
<x:xmpmeta xmlns:x="adobe:ns:meta/" x:xmptk="Adobe XMP Core 5.6-c138 79.159824, 2016/09/14-01:09:01        ">
   <rdf:RDF xmlns:rdf="http://www.w3.org/1999/02/22-rdf-syntax-ns#">
      <rdf:Description rdf:about=""/>
   </rdf:RDF>
</x:xmpmeta>
                                                                                                    
                                                                                                    
                                                                                                    
                                                                                                    
                                                                                                    
                                                                                                    
                                                                                                    
                                                                                                    
                                                                                                    
                                                                                                    
                                                                                                    
                                                                                                    
                                                                                                    
                                                                                                    
                                                                                                    
                                                                                                    
                                                                                                    
                                                                                                    
                                                                                                    
                                                                                                    
                           
<?xpacket end="w"?></metadata>
<defs>
    <style>
      .cls-1 {
        fill: #e4e4e4;
        fill-rule: evenodd;
      }
    </style>
  </defs>
  <path id="icon" class="cls-1" d="M995.767,223.3v0.24a5.108,5.108,0,0,1,.6.6h0.242l0.121,0.239H997.1l0.12,0.239h0.363c0.04,0.08.081,0.159,0.121,0.24h0.362v0.119a1.422,1.422,0,0,0,.605.358v0.239h0.241a1.409,1.409,0,0,0,.363.6h0.121v0.358c0.08,0.041.161,0.08,0.241,0.12v0.478h0.121V228.2a4.062,4.062,0,0,1-.362,2.032l-0.363.239v0.239l-0.6.478-0.363.479h-0.241l-0.242.358h-0.363l-0.12.239h-0.242l-1.208,1.315v0.478a1.275,1.275,0,0,1,1.329.837h0.241v0.239a3.9,3.9,0,0,1,2.055,1.912l-0.484.12a7.826,7.826,0,0,0,.363,2.629v0.6l0.242,0.12c0.178,0.382-.015.678,0.121,0.836a0.92,0.92,0,0,0-.484.837c0.433,0.478.1,1.732,0.363,2.391h0.121v0.239h0.12q0.121,0.537.242,1.075l0.244,0.12v0.478h0.12v0.239h0.12v0.358l0.24,0.12v0.359l0.24,0.119v0.358q0.12,0.062.24,0.12v0.24c0.09,0.039.17,0.079,0.25,0.119v0.239l0.48,0.358v0.479h0.12v0.239h0.12v0.478a2.672,2.672,0,0,1,0,1.195c-0.64.4-.12,0.607-1.33,0.6v-0.477a6.084,6.084,0,0,0-1.086-.718v0.12a3.68,3.68,0,0,0-.12,1.673v0.957h0.12V253.9h0.121v1.2h0.121v1.673h-0.121q-0.06.837-.121,1.674l-0.241.119v0.478h-0.121V259.4h-0.121q-0.06,1.076-.121,2.152h-0.121v0.478l-0.362.239c-0.04.159-.081,0.318-0.121,0.478h-0.121q0.06,0.717.121,1.434h-0.121v0.478h-0.121v0.239h-0.121a0.857,0.857,0,0,0-.12.479l1.087,0.6,0.121,0.239h0.363l0.12,0.239H1000c0.043,0.08.083,0.159,0.123,0.239h0.36l0.12,0.24h0.36v0.119c0.25,0.2.49,0.4,0.73,0.6v0.24h0.12v0.358a4.168,4.168,0,0,1-.48.478,3.123,3.123,0,0,1-1.937.239l-0.725-.119v-0.12h-0.725V268.6h-1.209v-0.12c-0.328-.094-0.822-0.068-1.087-0.119a1.147,1.147,0,0,1-.363-0.718,2.859,2.859,0,0,0,.121-1.553h-0.121a0.466,0.466,0,0,1,.242-0.6c-0.041-.119-0.081-0.239-0.121-0.359l-0.967-.119-0.725-.837q0.06-1.2.121-2.391h0.121v-0.238h0.12l0.363-1.674c-0.663.088-.494,0.239-0.725,0.717h-0.121v0.479l-0.242.119v0.359l-0.241.119v0.359h-0.121a1.362,1.362,0,0,0-.363.6h-0.241v0.239h-0.242V263.1H991.9v0.24h-0.241v0.238a3.1,3.1,0,0,1-1.209.478v-0.119h-0.362v-0.12h-0.242V263.7l-0.363-.12V263.34a0.987,0.987,0,0,1-.6-0.359c-0.243.068-.1-0.015-0.242,0.119-0.494.315-.139,0.2-0.362,0.6l-0.242.119v0.359l-0.241.12v0.358h-0.121q-0.062.717-.121,1.435h-0.121v0.239h-0.121q-0.06.717-.121,1.434l-0.241.12c-0.219.314,0.129,0.217-.363,0.358v0.12h-0.846v-0.12l-0.725-.12V268l-0.846-.717v-0.478a1.941,1.941,0,0,1-.121-1.2h0.121v-0.478h0.121v-0.478h0.121v-0.717h0.121q0.06-.717.121-1.434h0.12v-0.239h0.121v-0.479l0.363-.238c0.04-.12.08-0.239,0.121-0.359h0.241l0.121-.239h0.242v-0.12H986.7v-0.12a0.759,0.759,0,0,0,.6-0.6,5.3,5.3,0,0,0,.242-1.2l0.242-.12v-0.358l0.483-.359v-0.239l0.242-.12v-0.238h0.12q0.062-1.2.121-2.391l0.242-.12v-0.358l0.362-.239v-0.239l0.363-.239q-0.122-1.075-.242-2.152h-0.241q-0.061-.6-0.121-1.195h-0.242v1.912c-0.538-.048-0.711-0.217-1.329-0.239l-1.088-1.2a6.489,6.489,0,0,1,.6-2.51V245.53h0.121v-2.152h0.121V242.9h0.121v-0.358h0.121v-0.479h0.121a1.948,1.948,0,0,0-.242-1.434l-0.242-.119a4.775,4.775,0,0,1,.363-2.391v-0.478h0.121V237.4h0.121v-0.478h0.12v-0.239h0.121v-0.478h0.121v-0.24h0.121v-0.478l0.242-.12a3.159,3.159,0,0,1,.845-0.716H989.6a3.283,3.283,0,0,1,.846-0.478v-0.24h0.242V233.7h0.241v-0.239h0.242c0.078-.327.158-0.272,0.242-0.6a0.519,0.519,0,0,0,.483.119V232.86h0.121v-0.6H991.9v-0.119l-0.483.119v-0.239l-1.088-.239v-0.119a1.5,1.5,0,0,0-.6-0.359,1.38,1.38,0,0,0-.363-0.6h-0.12V230.35L989,230.23c-0.347-.731-0.037-2.337,0-3.108a1.275,1.275,0,0,0,.483-0.717l0.242-.12q0.363-.417.725-0.836h0.242l0.121-.239h0.241l0.242-.358h0.483v-0.12l0.484-.12,0.121-.239a3.288,3.288,0,0,1,1.812-1.195C994.593,222.805,995.432,223.217,995.767,223.3Zm13.293,2.271-0.48-.119c0.07,0.327.16,0.272,0.24,0.6-0.39-.125-0.56-0.063-0.61.478h0.13v0.12a3.233,3.233,0,0,0,.84-0.12l0.12-.239h0.24c0.12-.159.25-0.318,0.37-0.477a11.2,11.2,0,0,1,3.14-.12v0.12h0.48v0.119a1.454,1.454,0,0,0,.61.358v0.239a3.331,3.331,0,0,0,1.08.359,0.989,0.989,0,0,0-.24-0.837c0.54,0.023.4,0.289,0.49-.238h-0.13c-0.22-.114.25-0.12,0.25-0.12v0.239l1.08-.119v0.119c-0.33.086-.27,0.033-0.36,0.358a1.064,1.064,0,0,1,1.09.12v0.239h-0.12a0.8,0.8,0,0,0-.73-0.239v0.119h0.24v0.24h0.25a1.312,1.312,0,0,0,.36.6h0.12v0.479h0.12l-0.12,1.912h-0.12v0.358c-0.04.164-.14-0.048-0.12,0.12h0.12v0.358a1.013,1.013,0,0,1,.24.24h-0.24a1.675,1.675,0,0,0-.36-0.478l-0.12.238-2.18.24v0.956c-0.03.167-.13-0.049-0.12,0.12h0.12v0.358c0.24-.04.48-0.08,0.73-0.119v0.119h-0.13v0.119h-0.24v0.12a0.872,0.872,0,0,1-.48-0.12v0.239h-0.12l0.12,0.718h-0.12c-0.15-.229-0.12-0.2-0.48-0.239,0.02,0.563.18,0.713-.13,0.836-0.08-.33-0.03-0.267-0.36-0.358a3.2,3.2,0,0,0-.48,1.076l0.48,0.119v-0.119h0.36c0.04-.08.08-0.16,0.13-0.24l1.2-.119v0.119h0.49v0.12a1.5,1.5,0,0,0,.6.359v0.239l0.36,0.119v0.119h0.25c0.04,0.081.08,0.16,0.12,0.239,0.44,0.08.88,0.16,1.33,0.24l0.12,0.239h0.24v0.12h1.57v0.119h0.24v0.119a2.573,2.573,0,0,0,1.09-.358c0.71-.221,1.58.349,2.05,0.239,0.4-.091.71-0.383,1.09-0.478v-0.24h0.24v-0.239a1.486,1.486,0,0,0,.61-0.358v-0.119l1.93-.239a1.058,1.058,0,0,0,.48.239v0.119h0.24v0.12c0.17,0.119.33,0.238,0.49,0.358a1.111,1.111,0,0,0,.24.478l-0.12.478h-0.24c-0.2.279-.41,0.558-0.61,0.837h-0.24v0.12h-1.09v0.119h-0.12V237.4h-0.48v0.119a3.013,3.013,0,0,0-.48-0.119v0.478a1.427,1.427,0,0,0-.25.239h-0.24v0.119h-0.84l-0.12.239c-0.25.08-.49,0.16-0.73,0.239v0.12l-0.72.239v0.119h-0.37l-0.12.24h-0.48v0.119h-0.24v0.12c-0.91.347-2.51,0.109-3.63,0.119a9.788,9.788,0,0,0-.12,2.75h-0.12l0.12,1.553h0.12v0.479H1018v0.477h0.12V248.4h-0.96c0.26,1.535.93,2.544,0.96,4.3H1018v0.12a4.833,4.833,0,0,0-1.08.359h-2.9c-0.13.159-.25,0.318-0.37,0.478h-0.12l-0.12.478-0.48.358v0.239l-0.24.12v0.239c-0.17.12-.33,0.239-0.49,0.358v0.239l-0.24.12v0.239l-0.48.359v0.239l-0.24.119v0.24c-0.08.039-.17,0.079-0.25,0.119v0.359l-0.24.119v0.359h-0.12a2.585,2.585,0,0,0,.36.836h0.25v0.239l0.36,0.12v0.119l0.36,0.12,0.12,0.239h0.24v0.119h0.24c0.09,0.12.17,0.24,0.25,0.359l0.48,0.12,0.24,0.358c0.16,0.04.32,0.08,0.49,0.119l0.24,0.36h0.24v0.119h0.24v0.12l0.73,0.119,0.36,0.478h0.24v0.12l0.24,0.119v0.239h0.24a0.814,0.814,0,0,0,.49.6c-0.16.478-.33,0.956-0.49,1.434l-0.24.119v0.239c-0.08.041-.16,0.08-0.24,0.12v0.239h-0.12v0.478h0.12l-0.12,1.2h-0.12l-0.24.717h-0.12a1.306,1.306,0,0,0-.37.6l-0.36.12v0.12h-0.24v0.119l-0.61-.119-0.24-3.706-0.24-.12V264.3h-0.24v-0.24l-0.36-.119v-0.12h-0.25l-0.12-.239-0.6-.119,0.12,2.749,0.24,0.12a8.078,8.078,0,0,1,.12,2.629h-0.12l-0.12.6a2.443,2.443,0,0,1-1.45.239v-0.119h-0.48v0.119h-0.49v0.12c-1.07.31-2.45-.329-3.14-0.479v-0.717c0.12-.079.24-0.159,0.37-0.239V268.36h0.36a3.977,3.977,0,0,1,.84-0.478v-0.24h0.25l0.12-.358h0.12v-0.239h0.12v-3.108h-0.12V263.22h-0.12a1.888,1.888,0,0,1,.24-0.6h-0.12v-0.837h-0.12v-0.238h-0.12v-0.359c-0.09-.04-0.17-0.08-0.25-0.119v-0.24l-0.36-.239v-0.119h-0.24c-0.24-.279-0.48-0.558-0.73-0.837h-0.12v-0.478h-0.12v-0.239h-0.12a7.255,7.255,0,0,1-.12-2.271v-4.662a9.084,9.084,0,0,1-3.62-.478l0.12-.239h-0.12v-0.956h0.12l0.12-1.2a2.2,2.2,0,0,0,.24-1.434h-0.12v-0.239c-0.24-.2-0.49-0.4-0.73-0.6l-0.12-.837h-0.12v-2.152h0.12v-1.434h0.12c0.2-1.036.41-2.072,0.61-3.108a1.978,1.978,0,0,1-1.45-.12v-0.119c-0.12-.04-0.24-0.08-0.37-0.12v-0.239h-0.24a1.291,1.291,0,0,0-.36-0.6h-0.12V237.76l-0.24-.119v-0.359l-0.244-.119v-0.478h-0.121v-0.24h-0.121v-0.358l-0.241-.12q-0.062-.477-0.121-0.956h-0.121v-0.239l-0.242-.119q0.062-.538.121-1.076h-0.121q-0.12-.957-0.241-1.912l0.483-.359v-0.12h0.242v-0.119h0.362v-0.12l1.085-.119,0.12,0.358c0.67,0.1.76,0.166,0.73,0.957h-0.12v0.477l-0.24.12a2.288,2.288,0,0,0-.37.837h0.12v0.239h0.13v0.6h0.12v0.12l0.6,0.12,0.12,0.239,0.48,0.358a8.731,8.731,0,0,1,.25.957c0.7-.059,1.04-0.33,1.81-0.359a2.467,2.467,0,0,1,1.33-1.673,1.825,1.825,0,0,1,1.33-.24v0.12a6.3,6.3,0,0,0,2.17.478,4.149,4.149,0,0,0-.12-1.076,2.874,2.874,0,0,1-1.21.478l-0.12-.239a1.84,1.84,0,0,0,.73-0.119,1.706,1.706,0,0,0,.24-0.717,2.755,2.755,0,0,1-1.21-1.435,1.73,1.73,0,0,1-.84.24c-0.05-.08-0.09-0.16-0.13-0.24a0.986,0.986,0,0,0,.73-0.239v-0.119h-0.36v0.119h-0.73v-0.119h0.12c0.14-.137,0-0.048.24-0.12V230.23h-0.12v-0.239l-0.24-.119-0.12-.359-0.36-.12v-0.119c0.42-.1.47-0.212,0.48-0.717h-0.12v-0.6h-0.12a3.37,3.37,0,0,1,.48-2.032,0.261,0.261,0,0,1-.24-0.119l-0.48.119v-0.119h0.12a0.633,0.633,0,0,1,.72-0.24v0.12h0.37a0.772,0.772,0,0,1,.6-0.6v0.12C1008.32,225.521,1008.8,224.748,1009.06,225.568Zm0,0c0.14,0.136.05,0,.12,0.24h-0.12v-0.24Zm6.04,0h0.24v0.12C1015.1,225.62,1015.24,225.7,1015.1,225.568Zm-8.46,2.989v0.478h0.12v-0.478h-0.12Zm0.25,1.315v0.358l0.48,0.358v-0.6h-0.12v-0.119h-0.36Zm7.73,3.466h0.48v0.119h-0.48v-0.119Zm-0.48.6h0.24v0.12C1014.13,233.986,1014.27,234.069,1014.14,233.935Z" transform="translate(-984 -223.031)"/>
</svg>
