<svg xmlns="http://www.w3.org/2000/svg" width="20" height="16" viewBox="0 0 20 16">
  <metadata><?xpacket begin="﻿" id="W5M0MpCehiHzreSzNTczkc9d"?>
<x:xmpmeta xmlns:x="adobe:ns:meta/" x:xmptk="Adobe XMP Core 5.6-c138 79.159824, 2016/09/14-01:09:01        ">
   <rdf:RDF xmlns:rdf="http://www.w3.org/1999/02/22-rdf-syntax-ns#">
      <rdf:Description rdf:about=""/>
   </rdf:RDF>
</x:xmpmeta>
                                                                                                    
                                                                                                    
                                                                                                    
                                                                                                    
                                                                                                    
                                                                                                    
                                                                                                    
                                                                                                    
                                                                                                    
                                                                                                    
                                                                                                    
                                                                                                    
                                                                                                    
                                                                                                    
                                                                                                    
                                                                                                    
                                                                                                    
                                                                                                    
                                                                                                    
                                                                                                    
                           
<?xpacket end="w"?></metadata>
<defs>
    <style>
      .cls-1 {
        fill: #999;
        fill-rule: evenodd;
      }
    </style>
  </defs>
  <path class="cls-1" d="M3.538,13.827a0.736,0.736,0,0,1-.544-0.244L0.225,10.589c-0.018-.02-0.035-0.04-0.051-0.061l-0.014-.02C0.15,10.493.14,10.478,0.13,10.463L0.123,10.45C0.111,10.429.1,10.412,0.092,10.393l0-.01c-0.011-.022-0.02-0.042-0.028-0.063l0-.01C0.048,10.288.04,10.265,0.033,10.242l0-.009c-0.006-.021-0.011-0.045-0.016-0.07,0-.008,0-0.015,0-0.022V10.134c0-.016-0.005-0.033-0.007-0.05S0,10.028,0,10s0-.055,0-0.082,0-.04.008-0.059,0-.014,0-0.021c0-.025.01-0.049,0.017-0.072l0-.01C0.042,9.73.049,9.709,0.056,9.688l0-.009,0,0.008,0-.009h0C0.069,9.655.077,9.638,0.085,9.62l0.007-.015C0.1,9.588.111,9.571,0.121,9.554L0.13,9.538C0.14,9.521.151,9.505,0.163,9.49l0.013-.02c0.015-.019.031-0.039,0.049-0.059L2.995,6.417a0.729,0.729,0,0,1,1.088,0,0.88,0.88,0,0,1,0,1.176L2.626,9.168H12.692a0.835,0.835,0,0,1,0,1.664H2.626l1.456,1.575a0.88,0.88,0,0,1,0,1.176A0.736,0.736,0,0,1,3.538,13.827ZM12.945,18A6.867,6.867,0,0,1,7.1,14.476a0.907,0.907,0,0,1,.2-1.16,0.661,0.661,0,0,1,.4-0.141,0.707,0.707,0,0,1,.6.363,5.454,5.454,0,0,0,4.646,2.8c3.088,0,5.6-2.842,5.6-6.336s-2.512-6.336-5.6-6.336a5.454,5.454,0,0,0-4.654,2.81,0.707,0.707,0,0,1-.6.365,0.662,0.662,0,0,1-.4-0.139,0.908,0.908,0,0,1-.2-1.16A6.868,6.868,0,0,1,12.945,2C16.835,2,20,5.589,20,10S16.835,18,12.945,18Z" transform="translate(0 -2)"/>
</svg>
