<svg xmlns="http://www.w3.org/2000/svg" width="22" height="70" viewBox="0 0 22 70">
  <metadata><?xpacket begin="﻿" id="W5M0MpCehiHzreSzNTczkc9d"?>
<x:xmpmeta xmlns:x="adobe:ns:meta/" x:xmptk="Adobe XMP Core 5.6-c138 79.159824, 2016/09/14-01:09:01        ">
   <rdf:RDF xmlns:rdf="http://www.w3.org/1999/02/22-rdf-syntax-ns#">
      <rdf:Description rdf:about=""/>
   </rdf:RDF>
</x:xmpmeta>
                                                                                                    
                                                                                                    
                                                                                                    
                                                                                                    
                                                                                                    
                                                                                                    
                                                                                                    
                                                                                                    
                                                                                                    
                                                                                                    
                                                                                                    
                                                                                                    
                                                                                                    
                                                                                                    
                                                                                                    
                                                                                                    
                                                                                                    
                                                                                                    
                                                                                                    
                                                                                                    
                           
<?xpacket end="w"?></metadata>
<defs>
    <style>
      .cls-1 {
        fill: #e4e4e4;
        fill-rule: evenodd;
      }
    </style>
  </defs>
  <path id="icon" class="cls-1" d="M506.077,215.455c0.082,0.375.3,0.728,0.4,1.058v0.794a0.335,0.335,0,0,1,.132.4,4.849,4.849,0,0,0-.4,1.059h0.4v0.132h0.133v0.926h-0.133l-0.132.4h-0.133v0.265H506.21a0.452,0.452,0,0,1-.4.264c-0.073.895-.471,1.414-0.532,2.382a1.928,1.928,0,0,1,1.2.529l0.132,0.4h1.063v-0.132h0.4a0.534,0.534,0,0,0,.266.264v0.265a0.62,0.62,0,0,0-.4.529h0.8a1.457,1.457,0,0,0,.266.264v0.4l0.664,0.927H509.4v0.4h0.133V227.1h0.4l0.132-.4h0.532v0.4l-0.4.264v0.265l-0.265.132c-0.045.132-.089,0.265-0.133,0.4h-0.531a3.734,3.734,0,0,0-.4-0.4H509.4v-0.529h-0.531v0.529a5.107,5.107,0,0,1-1.328-.793V227.1h0.133a3.592,3.592,0,0,0,2.125,1.323l0.8-1.191a3.918,3.918,0,0,0,.8.4,1.628,1.628,0,0,0,.4.926l0.265,0.132v0.265h0.133q0.133,0.859.266,1.72h0.133l0.132,0.926h0.133v0.4h0.133v0.4h0.133v0.529h0.133l0.132,1.19h0.133q-0.066,1.125-.133,2.25c0.162,0.542.869,2.258,0.532,3.175H513.78V239.8l-0.266.133a9.968,9.968,0,0,1,.133,1.852h-0.133v0.264h-0.133q0.068,1.257.133,2.514h-0.133l-0.132.529h-0.133v0.4h-0.133v0.265H512.85v0.264l-0.265.132v0.265h-0.133c-0.2.5,0.04,1.632-.266,1.985v-0.265l-0.664-.794a5.467,5.467,0,0,0-1.461-.661c0.02-.973.455-1.638,0.133-2.514a0.232,0.232,0,0,0-.133.133h-0.132a6.531,6.531,0,0,1,0,1.984H509.8v0.264l-0.266.133v0.264H509.4v0.265h-0.132v0.4h-0.133a1.86,1.86,0,0,0,1.328,2.249,10.211,10.211,0,0,1,.265,1.058h-0.4a1.081,1.081,0,0,1-.266.794h-0.132q-0.134.661-.266,1.323H509.53c-0.088.264-.177,0.529-0.265,0.794h-0.133v0.264H509c-0.044.177-.089,0.353-0.133,0.53l-0.266.132-0.132.529h-0.133v0.794H508.2v0.4h-0.133q-0.066.6-.133,1.19H507.8v0.662h-0.133v0.661h-0.133v0.53h-0.133v0.661h-0.132v0.4H507.14V261.1h-0.133v0.926h-0.133q-0.066.993-.133,1.984v1.324h-0.133v3.7h-0.132v1.058h-0.133v1.191H506.21v0.662h-0.133v0.793h-0.133v2.779h-0.132v0.926h-0.133v0.4h-0.133v0.4h-0.133v0.4H505.28v0.529h-0.132a3.61,3.61,0,0,1-.266,1.322v-0.132l-0.8.132a2.023,2.023,0,0,0,.266,1.059q0.066,0.462.133,0.926h0.132q0.134,1.125.266,2.249h-0.133v0.132c-0.913.028-3.394,0.455-3.984-.132-0.151-.151-0.053,0-0.133-0.265a3.568,3.568,0,0,0,.133-1.19,9.987,9.987,0,0,0,.4-3.043H500.9v-0.4h-0.266q-0.332.464-.664,0.926H499.7v0.133l-1.329-.133c-0.088-.133-0.177-0.265-0.265-0.4h-0.133V279.09h-0.133a5.894,5.894,0,0,1-.4-2.779v-1.058a7.036,7.036,0,0,0,.8-2.382,0.481,0.481,0,0,1-.4-0.264h-0.132v-0.265l-0.266-.132v-1.19h-0.133v-0.4h-0.133v-3.44c-0.283-.975-0.507-2.082-0.8-3.043v-0.794H496.25a0.228,0.228,0,0,1,.132-0.264v-1.191h0.133c-0.044-.176-0.088-0.353-0.133-0.529H496.25q-0.067-1.323-.133-2.646h-0.133v-0.529h-0.133v-0.53h-0.133V257h-0.132V256.07c-0.089-.044-0.177-0.089-0.266-0.132v-0.265h-0.133c-0.044-.176-0.088-0.353-0.133-0.529h-0.132v-0.529h-0.133v-0.53h-0.133q-0.066-.926-0.133-1.852H494.39v-0.264h-0.132q-0.067-.4-0.133-0.794h-0.133v-0.529h-0.133v-0.265h-0.133a0.972,0.972,0,0,1-.133-0.529l0.8-.661,0.133-.265c0.582-.385,1.079.031,1.195-0.927a2.63,2.63,0,0,1-.265-1.587,3.1,3.1,0,0,0-1.992.132H493.2l-0.4.53-0.266.132v0.529H492.4V247.6c-0.213-.3.331-0.572,0.133-1.059l-0.265-.132v-0.265h-0.133q0.2-.661.4-1.323l-0.4-.132c-0.045-.22-0.089-0.441-0.133-0.661a4.717,4.717,0,0,0,.531-1.588H492.4v-0.529h-0.132a1.779,1.779,0,0,0,.132-0.794,0.349,0.349,0,0,1-.132-0.4H492.4v-1.059h-0.132v-1.059h-0.133a5.776,5.776,0,0,1,.4-2.778v-1.19h0.133v-1.191H492.8v-0.662h0.133v-0.529h0.132v-0.529H493.2v-0.4h0.133v-0.4h0.133v-0.4h0.132q0.133-.594.266-1.19l0.266-.133v-0.264l0.265-.133v-0.264l0.266-.132v-0.265c0.272-.387.423-0.06,0.531-0.794l0.4-.132a11.1,11.1,0,0,0,.531,1.058l0.8,0.133c0.266-.4.12-0.06,0.4-0.265l0.531-.661h0.266c0.044-.089.088-0.177,0.133-0.265h0.265l0.266-.4h0.265V226.7a0.473,0.473,0,0,0,.266-0.4h-0.133a3.7,3.7,0,0,1-1.328.926v0.132l-0.664.529v-0.529a1.3,1.3,0,0,0-.531.133c0.154,0.539.121,0.14,0.4,0.4v0.133h-0.132c-0.045.088-.089,0.176-0.133,0.264-0.681-.174-0.714-0.69-1.063-1.19h-0.132l-0.266-.4,1.859-.53v-0.132l0.532-.4a1.29,1.29,0,0,1,.265-0.529v-0.661l1.461-.265a1.8,1.8,0,0,1,1.594-1.058v-2.25h-0.4v-0.132H500.5v-0.132h-0.132V220.35h-0.133v-0.265c-0.089-.044-0.177-0.089-0.266-0.132v-0.926l0.4-.265q-0.068-.33-0.133-0.662H500.1a3.42,3.42,0,0,1,.133-1.984v-0.265l0.4-.264v-0.265h0.133l0.266-.4H501.3l0.266-.4h0.265c0.045-.088.089-0.176,0.133-0.264h0.266v-0.132h0.4V214h1.461a1.1,1.1,0,0,0,.531.265c0.045,0.088.089,0.176,0.133,0.264h0.4v0.133l0.531,0.4c0.044,0.132.088,0.264,0.133,0.4h0.265Zm-7.3,29.369c-0.044.4-.089,0.794-0.133,1.191a2.544,2.544,0,0,0,.93.132v0.133l1.992-.133v-0.132h0.531v-0.132h0.664v-0.132h2.656l1.195-.133v0.133l0.665,0.132v0.4h0.132a2.259,2.259,0,0,0-.265-0.926,1.038,1.038,0,0,1-.532-0.265v-0.132l-1.46-.529c-0.638-.193-1.7.25-2.125-0.132l2.921-.133a10.448,10.448,0,0,1-.132-3.043h0.132v-2.778h0.133v-0.264h0.133V236.49a12.5,12.5,0,0,1-.93-4.234V230.8h0.133v-0.4h0.133V228.42a0.234,0.234,0,0,1-.133-0.265h0.133c0.044-.353.089-0.706,0.133-1.058h0.133v-0.265h0.132v-0.264h0.133V226.3h0.133a0.936,0.936,0,0,0,.133-0.529,1.639,1.639,0,0,1-.4-1.059h-0.132v-0.4c-0.1-.246-0.286-0.651-0.4-0.925H505.28v0.661l-0.265.132a3.148,3.148,0,0,1-2.125,1.323l-0.266-.4h-0.265l-1.328-1.455,0.132-.4H500.9a2.3,2.3,0,0,1-.4.265c-0.162.153-.221,0.386-0.4,0.529q-0.066.662-.133,1.323H500.1v1.191h0.133V227.1h0.133v0.661H500.5v0.4h0.133v0.529h0.133V230.8h-0.133v1.058H500.5v0.926h-0.132v1.059h-0.133v0.529H500.1c-0.044.4-.089,0.793-0.133,1.191h-0.133v1.984H499.7v0.926H499.57a2.7,2.7,0,0,0,.265,1.588l-0.132,1.984H499.57v1.588a6.342,6.342,0,0,1-.532.926H499.3v0.132h0.133V244.56a7.027,7.027,0,0,1,2.39.132Zm3.984-18.918h0.664q0.2,0.264.4,0.53h-0.132v0.132h-0.266a3.984,3.984,0,0,1-.266.4q0.4,1.057.8,2.116,0.067,2.514.133,5.027h0.133v2.25h0.133v1.852a15.4,15.4,0,0,1,.4,3.836,5,5,0,0,0-1.328,1.323,0.233,0.233,0,0,1-.133-0.132l-0.664-.4v-0.132h-0.265l-0.266-.4-0.4-.133v-2.116a2.236,2.236,0,0,0,.132-1.191V235.7q0.134-3.639.266-7.276h0.133q0.066-.264.133-0.53h0.133v-0.4h0.132V226.17A0.3,0.3,0,0,0,502.757,225.906Zm-6.64.662V227.1h0.4v-0.132c0.151-.151.053,0,0.133-0.265h-0.133v-0.132h-0.4Zm13.679,17.6a5.507,5.507,0,0,1,0-1.985,0.339,0.339,0,0,0,.133-0.4H509.8v-0.4a0.969,0.969,0,0,1-.133-0.926h0.266a2.549,2.549,0,0,0-.266-1.323,0.231,0.231,0,0,0-.133.132,1.667,1.667,0,0,0-.4.926H509a2.424,2.424,0,0,0,.133,1.191v1.058H509a2.2,2.2,0,0,0,.266,1.455A1.543,1.543,0,0,0,509.8,244.163Zm-7.7.265h0.664v0.132h-0.664v-0.132Zm9.3,4.894a0.617,0.617,0,0,1,.4-0.528,0.23,0.23,0,0,1,.133-0.133v0.4A1.548,1.548,0,0,1,511.389,249.322Zm-9.429,5.557c-0.044.265-.088,0.529-0.133,0.794H501.7V256.6h-0.133v1.985c-0.044.264-.089,0.529-0.133,0.793h0.133v0.53H501.7v1.852s-0.175,0-.133.264H501.7v1.059h-0.133q-0.134.859-.266,1.72h0.133v0.4c0.043,0.182.139-.054,0.133,0.133h-0.133q-0.066.727-.133,1.455a0.231,0.231,0,0,1,.133.132c0.267-.076.115,0.016,0.266-0.132,0.358-.4.272-1.842,0.4-2.514a29.11,29.11,0,0,1,0-3.44h0.133v-1.455c0.367-1.31.007-3.126,0-4.5H501.96Z" transform="translate(-492 -214)"/>
</svg>
