<svg xmlns="http://www.w3.org/2000/svg" width="14" height="14" viewBox="0 0 14 14">
  <metadata><?xpacket begin="﻿" id="W5M0MpCehiHzreSzNTczkc9d"?>
<x:xmpmeta xmlns:x="adobe:ns:meta/" x:xmptk="Adobe XMP Core 5.6-c138 79.159824, 2016/09/14-01:09:01        ">
   <rdf:RDF xmlns:rdf="http://www.w3.org/1999/02/22-rdf-syntax-ns#">
      <rdf:Description rdf:about=""/>
   </rdf:RDF>
</x:xmpmeta>
                                                                                                    
                                                                                                    
                                                                                                    
                                                                                                    
                                                                                                    
                                                                                                    
                                                                                                    
                                                                                                    
                                                                                                    
                                                                                                    
                                                                                                    
                                                                                                    
                                                                                                    
                                                                                                    
                                                                                                    
                                                                                                    
                                                                                                    
                                                                                                    
                                                                                                    
                                                                                                    
                           
<?xpacket end="w"?></metadata>
<defs>
    <style>
      .cls-1 {
        fill: #333;
        fill-rule: evenodd;
      }
    </style>
  </defs>
  <path class="cls-1" d="M821.972,1400.52a0.55,0.55,0,1,0,.547.55A0.551,0.551,0,0,0,821.972,1400.52Zm2.461,1.1a0.55,0.55,0,1,0-.547-0.55A0.551,0.551,0,0,0,824.433,1401.62Zm-4.922-1.1a0.55,0.55,0,1,0,.547.55A0.55,0.55,0,0,0,819.511,1400.52Zm6.012,2.69a0.48,0.48,0,0,0-.24-0.14l-2.208-.61a0.535,0.535,0,0,0-.537.14,0.55,0.55,0,0,0-.132.54l0.654,2.16a0.531,0.531,0,0,0,.137.22l3,3a1.64,1.64,0,1,0,2.32-2.32Zm0.569,3.66-2.025-2.02-0.325-1.07,1.11,0.3,2.014,2.02Zm1.654,0.88a0.554,0.554,0,0,1-.774,0l-0.105-.11,0.773-.77,0.106,0.1A0.556,0.556,0,0,1,827.746,1407.75Zm-12.7-.03a0.547,0.547,0,0,0,.117.6,0.559,0.559,0,0,0,.6.12l3.526-1.49a7.75,7.75,0,0,0,2.715.48h0.352a0.551,0.551,0,0,0-.048-1.1c-0.1.01-.2,0.01-0.3,0.01a6.493,6.493,0,0,1-2.517-.49,0.553,0.553,0,0,0-.419.01l-2.49,1.05,0.839-1.99a0.551,0.551,0,0,0-.1-0.58,4.629,4.629,0,0,1-1.224-3.11c0-2.83,2.65-5.14,5.907-5.14s5.906,2.31,5.906,5.14a4.469,4.469,0,0,1-.49,2,0.548,0.548,0,1,0,.98.49,5.588,5.588,0,0,0,.6-2.49c0-3.44-3.141-6.23-7-6.23s-7,2.79-7,6.23a5.64,5.64,0,0,0,1.275,3.57Z" transform="translate(-815 -1395)"/>
</svg>
