<svg xmlns="http://www.w3.org/2000/svg" width="20" height="22.222" viewBox="0 0 18 20">
  <metadata><?xpacket begin="﻿" id="W5M0MpCehiHzreSzNTczkc9d"?>
<x:xmpmeta xmlns:x="adobe:ns:meta/" x:xmptk="Adobe XMP Core 5.6-c138 79.159824, 2016/09/14-01:09:01        ">
   <rdf:RDF xmlns:rdf="http://www.w3.org/1999/02/22-rdf-syntax-ns#">
      <rdf:Description rdf:about=""/>
   </rdf:RDF>
</x:xmpmeta>
                                                                                                    
                                                                                                    
                                                                                                    
                                                                                                    
                                                                                                    
                                                                                                    
                                                                                                    
                                                                                                    
                                                                                                    
                                                                                                    
                                                                                                    
                                                                                                    
                                                                                                    
                                                                                                    
                                                                                                    
                                                                                                    
                                                                                                    
                                                                                                    
                                                                                                    
                                                                                                    
                           
<?xpacket end="w"?></metadata>
<defs>
    <style>
      .cls-1 {
        fill: #999;
        fill-rule: evenodd;
      }
    </style>
  </defs>
  <path id="Forma_1" data-name="Forma 1" class="cls-1" d="M13.784,8.594A0.783,0.783,0,0,0,13,7.812H4.918a0.781,0.781,0,1,0,0,1.563H13A0.783,0.783,0,0,0,13.784,8.594ZM4.918,10.937a0.781,0.781,0,1,0,0,1.563H9.826a0.781,0.781,0,1,0,0-1.563H4.918Zm1.844,7.5H4.138a1.567,1.567,0,0,1-1.569-1.562V3.125A1.567,1.567,0,0,1,4.138,1.562h9.645a1.568,1.568,0,0,1,1.569,1.562v4.8a0.785,0.785,0,0,0,1.569,0v-4.8A3.135,3.135,0,0,0,13.784,0H4.138A3.135,3.135,0,0,0,1,3.125v13.75A3.135,3.135,0,0,0,4.138,20H6.762A0.781,0.781,0,1,0,6.762,18.437Zm11.549-7.126a2.363,2.363,0,0,0-3.328,0l-4.307,4.28a0.78,0.78,0,0,0-.2.326L9.542,18.992A0.782,0.782,0,0,0,10.292,20a0.787,0.787,0,0,0,.209-0.029l3.167-.873a0.786,0.786,0,0,0,.345-0.2l4.3-4.272A2.339,2.339,0,0,0,18.311,11.311Zm-5.261,6.336-1.593.439,0.466-1.529L14.83,13.67l1.11,1.1ZM17.2,13.521l-0.152.151-1.11-1.1,0.152-.151a0.788,0.788,0,0,1,1.109,0A0.78,0.78,0,0,1,17.2,13.521ZM13,4.687H4.918a0.781,0.781,0,1,0,0,1.562H13A0.781,0.781,0,1,0,13,4.687Z" transform="translate(-1)"/>
</svg>
