<svg xmlns="http://www.w3.org/2000/svg" width="12" height="14" viewBox="0 0 12 14">
  <metadata><?xpacket begin="﻿" id="W5M0MpCehiHzreSzNTczkc9d"?>
<x:xmpmeta xmlns:x="adobe:ns:meta/" x:xmptk="Adobe XMP Core 5.6-c138 79.159824, 2016/09/14-01:09:01        ">
   <rdf:RDF xmlns:rdf="http://www.w3.org/1999/02/22-rdf-syntax-ns#">
      <rdf:Description rdf:about=""/>
   </rdf:RDF>
</x:xmpmeta>
                                                                                                    
                                                                                                    
                                                                                                    
                                                                                                    
                                                                                                    
                                                                                                    
                                                                                                    
                                                                                                    
                                                                                                    
                                                                                                    
                                                                                                    
                                                                                                    
                                                                                                    
                                                                                                    
                                                                                                    
                                                                                                    
                                                                                                    
                                                                                                    
                                                                                                    
                                                                                                    
                           
<?xpacket end="w"?></metadata>
<defs>
    <style>
      .cls-1 {
        fill: #333;
        fill-rule: evenodd;
      }
    </style>
  </defs>
  <path id="Lock_icon" data-name="Lock icon" class="cls-1" d="M1505.75,326.68a0.734,0.734,0,1,0,.71.734A0.725,0.725,0,0,0,1505.75,326.68Zm-3.52,5.32a2.258,2.258,0,0,1-2.23-2.28v-4.4a2.258,2.258,0,0,1,2.23-2.28h0.49v-1.758a3.275,3.275,0,1,1,6.55,0v1.758h0.5a2.258,2.258,0,0,1,2.23,2.28v4.4a2.258,2.258,0,0,1-2.23,2.28h-7.54Zm0-7.617a0.929,0.929,0,0,0-.92.939v4.4a0.929,0.929,0,0,0,.92.939h7.54a0.929,0.929,0,0,0,.92-0.939v-4.4a0.929,0.929,0,0,0-.92-0.939h-7.54Zm5.73-1.341v-1.758a1.965,1.965,0,0,0-3.93,0v1.758h3.93Z" transform="translate(-1500 -318)"/>
</svg>
