<svg xmlns="http://www.w3.org/2000/svg" width="16" height="12" viewBox="0 0 16 12">
  <metadata><?xpacket begin="﻿" id="W5M0MpCehiHzreSzNTczkc9d"?>
<x:xmpmeta xmlns:x="adobe:ns:meta/" x:xmptk="Adobe XMP Core 5.6-c138 79.159824, 2016/09/14-01:09:01        ">
   <rdf:RDF xmlns:rdf="http://www.w3.org/1999/02/22-rdf-syntax-ns#">
      <rdf:Description rdf:about=""/>
   </rdf:RDF>
</x:xmpmeta>
                                                                                                    
                                                                                                    
                                                                                                    
                                                                                                    
                                                                                                    
                                                                                                    
                                                                                                    
                                                                                                    
                                                                                                    
                                                                                                    
                                                                                                    
                                                                                                    
                                                                                                    
                                                                                                    
                                                                                                    
                                                                                                    
                                                                                                    
                                                                                                    
                                                                                                    
                                                                                                    
                           
<?xpacket end="w"?></metadata>
<defs>
    <style>
      .cls-1 {
        fill: red;
        fill-rule: evenodd;
      }
    </style>
  </defs>
  <path id="remove" class="cls-1" d="M1880.35,170a3.278,3.278,0,0,1-2.41-1.066l-3.51-3.835a1.63,1.63,0,0,1,0-2.2l3.51-3.833a3.284,3.284,0,0,1,2.41-1.065h6.82a2.839,2.839,0,0,1,2.83,2.84v6.32a2.839,2.839,0,0,1-2.83,2.84h-6.82Zm0.01-10.6a1.893,1.893,0,0,0-1.39.61l-3.51,3.835a0.223,0.223,0,0,0,0,.3l3.51,3.836a1.874,1.874,0,0,0,1.38.61h6.82a1.444,1.444,0,0,0,1.44-1.439V160.84a1.444,1.444,0,0,0-1.44-1.439h-6.81Zm4.86,7.076a0.7,0.7,0,0,1-.5-0.206l-1.28-1.283-1.28,1.283a0.7,0.7,0,0,1-.99,0,0.7,0.7,0,0,1,.01-0.99l1.27-1.283-1.28-1.282a0.7,0.7,0,0,1-.2-0.5,0.71,0.71,0,0,1,.7-0.7,0.69,0.69,0,0,1,.49.206l1.28,1.282,1.28-1.282a0.7,0.7,0,0,1,.99,0,0.713,0.713,0,0,1,0,.99L1884.43,164l1.28,1.283a0.688,0.688,0,0,1,0,.99A0.69,0.69,0,0,1,1885.22,166.477Z" transform="translate(-1874 -158)"/>
</svg>
