<svg xmlns="http://www.w3.org/2000/svg" width="49" height="59" viewBox="0 0 35 42.143">
  <metadata><?xpacket begin="﻿" id="W5M0MpCehiHzreSzNTczkc9d"?>
<x:xmpmeta xmlns:x="adobe:ns:meta/" x:xmptk="Adobe XMP Core 5.6-c138 79.159824, 2016/09/14-01:09:01        ">
   <rdf:RDF xmlns:rdf="http://www.w3.org/1999/02/22-rdf-syntax-ns#">
      <rdf:Description rdf:about=""/>
   </rdf:RDF>
</x:xmpmeta>
                                                                                                    
                                                                                                    
                                                                                                    
                                                                                                    
                                                                                                    
                                                                                                    
                                                                                                    
                                                                                                    
                                                                                                    
                                                                                                    
                                                                                                    
                                                                                                    
                                                                                                    
                                                                                                    
                                                                                                    
                                                                                                    
                                                                                                    
                                                                                                    
                                                                                                    
                                                                                                    
                           
<?xpacket end="w"?></metadata>
<defs>
    <style>
      .cls-1 {
        fill: #555;
        fill-rule: evenodd;
      }
    </style>
  </defs>
  <path id="icon" class="cls-1" d="M817.552,3184a2.551,2.551,0,0,1-2.552-2.55v-21.08a2.558,2.558,0,0,1,2.552-2.55h22.394a2.558,2.558,0,0,1,2.552,2.55v10.74l0.415-.36a12.57,12.57,0,0,0-8.2-22.1H834.46v4.47l-5.564-5.56,5.564-5.56v3.94h0.251a15.275,15.275,0,0,1,7.908,28.36l-0.121.07v7.08a2.551,2.551,0,0,1-2.552,2.55H817.552Zm1.62-23.46a1.456,1.456,0,0,0-1.459,1.45v17.84a1.464,1.464,0,0,0,1.459,1.46h19.153a1.465,1.465,0,0,0,1.46-1.46v-17.84a1.456,1.456,0,0,0-1.46-1.45h-5v14.02l-9.143-6.09v-7.93h-5Zm7.718,6.48,3.718,2.48v-8.96H826.89v6.48Z" transform="translate(-815 -3141.929)"/>
</svg>
