<svg xmlns="http://www.w3.org/2000/svg" width="18" height="18" viewBox="0 0 18 18">
  <metadata><?xpacket begin="﻿" id="W5M0MpCehiHzreSzNTczkc9d"?>
<x:xmpmeta xmlns:x="adobe:ns:meta/" x:xmptk="Adobe XMP Core 5.6-c138 79.159824, 2016/09/14-01:09:01        ">
   <rdf:RDF xmlns:rdf="http://www.w3.org/1999/02/22-rdf-syntax-ns#">
      <rdf:Description rdf:about=""/>
   </rdf:RDF>
</x:xmpmeta>
                                                                                                    
                                                                                                    
                                                                                                    
                                                                                                    
                                                                                                    
                                                                                                    
                                                                                                    
                                                                                                    
                                                                                                    
                                                                                                    
                                                                                                    
                                                                                                    
                                                                                                    
                                                                                                    
                                                                                                    
                                                                                                    
                                                                                                    
                                                                                                    
                                                                                                    
                                                                                                    
                           
<?xpacket end="w"?></metadata>
<defs>
    <style>
      .cls-1 {
        fill: #999;
        fill-rule: evenodd;
      }
    </style>
  </defs>
  <path id="icon" class="cls-1" d="M483.356,4923.22a0.549,0.549,0,0,0,.423.19,0.6,0.6,0,0,0,.379-0.14,0.543,0.543,0,0,0,.046-0.78l-2.106-2.3a0.012,0.012,0,0,0-.013-0.01l-0.024-.03a0.094,0.094,0,0,1-.01-0.01c-0.021-.02-0.046-0.02-0.068-0.04a0.316,0.316,0,0,0-.077-0.05c-0.011,0-.022-0.01-0.032-0.01a0.3,0.3,0,0,0-.093-0.02,0.286,0.286,0,0,0-.091-0.02h-0.033a0.292,0.292,0,0,0-.091.02,0.286,0.286,0,0,0-.092.02c-0.011,0-.021.01-0.031,0.01a0.308,0.308,0,0,0-.079.05c-0.022.02-.048,0.02-0.068,0.04a0.094,0.094,0,0,0-.01.01l-0.024.03a0.012,0.012,0,0,0-.013.01l-2.105,2.3a0.543,0.543,0,0,0,.047.78,0.6,0.6,0,0,0,.377.14,0.551,0.551,0,0,0,.424-0.19l1.114-1.21v6.33a1.681,1.681,0,0,0,1.7,1.66H489a0.555,0.555,0,1,0,0-1.11H482.81a0.555,0.555,0,0,1-.568-0.55v-6.33Zm12.651,3.55-1.114,1.22v-6.33a1.681,1.681,0,0,0-1.7-1.66H487.2a0.561,0.561,0,0,0-.568.55,0.554,0.554,0,0,0,.568.55h5.991a0.564,0.564,0,0,1,.568.56v6.33l-1.114-1.22a0.59,0.59,0,0,0-.8-0.04,0.543,0.543,0,0,0-.047.78l2.106,2.3a0.011,0.011,0,0,0,.012.01l0.026,0.03a0.081,0.081,0,0,0,.009.01c0.027,0.02.058,0.03,0.087,0.05,0.01,0.01.018,0.01,0.028,0.02a0.071,0.071,0,0,0,.038.02,0.015,0.015,0,0,0,.016.01,0.737,0.737,0,0,0,.209.04,0.751,0.751,0,0,0,.209-0.04,0.014,0.014,0,0,0,.015-0.01,0.062,0.062,0,0,0,.037-0.02c0.01-.01.017-0.01,0.026-0.02a0.333,0.333,0,0,0,.09-0.05,0.094,0.094,0,0,0,.01-0.01l0.024-.03a0.012,0.012,0,0,0,.013-0.01l2.105-2.3a0.543,0.543,0,0,0-.047-0.78A0.588,0.588,0,0,0,496.007,4926.77Z" transform="translate(-479 -4916)"/>
</svg>
