<svg xmlns="http://www.w3.org/2000/svg" width="13" height="14" viewBox="0 0 13 14">
  <metadata><?xpacket begin="﻿" id="W5M0MpCehiHzreSzNTczkc9d"?>
<x:xmpmeta xmlns:x="adobe:ns:meta/" x:xmptk="Adobe XMP Core 5.6-c138 79.159824, 2016/09/14-01:09:01        ">
   <rdf:RDF xmlns:rdf="http://www.w3.org/1999/02/22-rdf-syntax-ns#">
      <rdf:Description rdf:about=""/>
   </rdf:RDF>
</x:xmpmeta>
                                                                                                    
                                                                                                    
                                                                                                    
                                                                                                    
                                                                                                    
                                                                                                    
                                                                                                    
                                                                                                    
                                                                                                    
                                                                                                    
                                                                                                    
                                                                                                    
                                                                                                    
                                                                                                    
                                                                                                    
                                                                                                    
                                                                                                    
                                                                                                    
                                                                                                    
                                                                                                    
                           
<?xpacket end="w"?></metadata>
<defs>
    <style>
      .cls-1 {
        fill: #333;
        fill-rule: evenodd;
      }
    </style>
  </defs>
  <path id="Forma_1" data-name="Forma 1" class="cls-1" d="M824.233,1325.02a0.555,0.555,0,0,0-.567-0.55H817.83a0.545,0.545,0,1,0,0,1.09h5.836A0.553,0.553,0,0,0,824.233,1325.02Zm-6.4,1.64a0.553,0.553,0,0,0-.567.54,0.561,0.561,0,0,0,.567.55h3.544a0.561,0.561,0,0,0,.567-0.55,0.553,0.553,0,0,0-.567-0.54H817.83Zm1.331,5.25h-1.895a1.116,1.116,0,0,1-1.133-1.1v-9.62a1.116,1.116,0,0,1,1.133-1.1h6.967a1.116,1.116,0,0,1,1.133,1.1v3.36a0.567,0.567,0,0,0,1.133,0v-3.36a2.23,2.23,0,0,0-2.266-2.19h-6.967a2.23,2.23,0,0,0-2.266,2.19v9.62a2.23,2.23,0,0,0,2.266,2.19h1.895a0.561,0.561,0,0,0,.567-0.55A0.553,0.553,0,0,0,819.161,1331.91Zm8.342-4.99a1.745,1.745,0,0,0-2.4,0l-3.111,2.99a0.654,0.654,0,0,0-.142.23l-0.677,2.15a0.53,0.53,0,0,0,.137.54,0.567,0.567,0,0,0,.4.17,0.772,0.772,0,0,0,.151-0.02l2.287-.61a0.586,0.586,0,0,0,.249-0.14l3.105-2.99A1.6,1.6,0,0,0,827.5,1326.92Zm-3.8,4.43-1.15.31,0.336-1.07,2.1-2.02,0.8,0.77Zm3-2.89-0.11.11-0.8-.77,0.109-.11a0.588,0.588,0,0,1,.8,0A0.531,0.531,0,0,1,826.7,1328.46Zm-3.036-6.18H817.83a0.561,0.561,0,0,0-.567.55,0.553,0.553,0,0,0,.567.54h5.836a0.553,0.553,0,0,0,.567-0.54A0.561,0.561,0,0,0,823.666,1322.28Z" transform="translate(-815 -1319)"/>
</svg>
