<svg xmlns="http://www.w3.org/2000/svg" width="18" height="18" viewBox="0 0 18 18">
  <metadata><?xpacket begin="﻿" id="W5M0MpCehiHzreSzNTczkc9d"?>
<x:xmpmeta xmlns:x="adobe:ns:meta/" x:xmptk="Adobe XMP Core 5.6-c138 79.159824, 2016/09/14-01:09:01        ">
   <rdf:RDF xmlns:rdf="http://www.w3.org/1999/02/22-rdf-syntax-ns#">
      <rdf:Description rdf:about=""/>
   </rdf:RDF>
</x:xmpmeta>
                                                                                                    
                                                                                                    
                                                                                                    
                                                                                                    
                                                                                                    
                                                                                                    
                                                                                                    
                                                                                                    
                                                                                                    
                                                                                                    
                                                                                                    
                                                                                                    
                                                                                                    
                                                                                                    
                                                                                                    
                                                                                                    
                                                                                                    
                                                                                                    
                                                                                                    
                                                                                                    
                           
<?xpacket end="w"?></metadata>
<defs>
    <style>
      .cls-1 {
        fill: #999;
        fill-rule: evenodd;
      }
    </style>
  </defs>
  <path id="icon" class="cls-1" d="M595,4931a0.392,0.392,0,0,1-.3-0.14l-4.8-5.53s0,0,0-.01a4.123,4.123,0,0,1,0-5.15l0.073-.08a2.821,2.821,0,0,1,4.455,0l0.569,0.67,0.568-.67a2.822,2.822,0,0,1,4.456,0l0.073,0.08a4.123,4.123,0,0,1,0,5.15c0,0.01,0,.01,0,0.01l-4.795,5.53A0.392,0.392,0,0,1,595,4931Zm-4.5-6.26,4.5,5.19,4.5-5.19a3.2,3.2,0,0,0,0-3.98l-0.073-.09a2.051,2.051,0,0,0-3.251,0l-0.87,1.03a0.394,0.394,0,0,1-.6,0l-0.87-1.03a2.051,2.051,0,0,0-3.251,0l-0.073.09A3.2,3.2,0,0,0,590.5,4924.74Z" transform="translate(-586 -4916)"/>
</svg>
