<svg xmlns="http://www.w3.org/2000/svg" width="18" height="18" viewBox="0 0 18 18">
  <metadata><?xpacket begin="﻿" id="W5M0MpCehiHzreSzNTczkc9d"?>
<x:xmpmeta xmlns:x="adobe:ns:meta/" x:xmptk="Adobe XMP Core 5.6-c138 79.159824, 2016/09/14-01:09:01        ">
   <rdf:RDF xmlns:rdf="http://www.w3.org/1999/02/22-rdf-syntax-ns#">
      <rdf:Description rdf:about=""/>
   </rdf:RDF>
</x:xmpmeta>
                                                                                                    
                                                                                                    
                                                                                                    
                                                                                                    
                                                                                                    
                                                                                                    
                                                                                                    
                                                                                                    
                                                                                                    
                                                                                                    
                                                                                                    
                                                                                                    
                                                                                                    
                                                                                                    
                                                                                                    
                                                                                                    
                                                                                                    
                                                                                                    
                                                                                                    
                                                                                                    
                           
<?xpacket end="w"?></metadata>
<defs>
    <style>
      .cls-1 {
        fill: #999;
        fill-rule: evenodd;
      }
    </style>
  </defs>
  <path id="icon" class="cls-1" d="M540.15,4931a0.641,0.641,0,0,1-.237-0.05,0.607,0.607,0,0,1-.376-0.56v-1.5a4,4,0,0,1-3.537-3.98V4922a4.01,4.01,0,0,1,4-4H545a4.01,4.01,0,0,1,4,4v2.91a4.012,4.012,0,0,1-4,4.01h-0.37a5.114,5.114,0,0,0-3.654,1.51l-0.39.39A0.591,0.591,0,0,1,540.15,4931ZM540,4926.94a0.469,0.469,0,0,1,.468.47v2.2a6.074,6.074,0,0,1,4.154-1.63H545a3.074,3.074,0,0,0,3.068-3.07v-0.26h0V4922a3.066,3.066,0,0,0-3.069-3.06H540a3.065,3.065,0,0,0-3.067,3.06v2.91a3.076,3.076,0,0,0,2.6,3.03v-0.53A0.469,0.469,0,0,1,540,4926.94Z" transform="translate(-533.5 -4915.5)"/>
</svg>
