<svg xmlns="http://www.w3.org/2000/svg" width="20" height="19" viewBox="0 0 20 19">
  <metadata><?xpacket begin="﻿" id="W5M0MpCehiHzreSzNTczkc9d"?>
<x:xmpmeta xmlns:x="adobe:ns:meta/" x:xmptk="Adobe XMP Core 5.6-c138 79.159824, 2016/09/14-01:09:01        ">
   <rdf:RDF xmlns:rdf="http://www.w3.org/1999/02/22-rdf-syntax-ns#">
      <rdf:Description rdf:about=""/>
   </rdf:RDF>
</x:xmpmeta>
                                                                                                    
                                                                                                    
                                                                                                    
                                                                                                    
                                                                                                    
                                                                                                    
                                                                                                    
                                                                                                    
                                                                                                    
                                                                                                    
                                                                                                    
                                                                                                    
                                                                                                    
                                                                                                    
                                                                                                    
                                                                                                    
                                                                                                    
                                                                                                    
                                                                                                    
                                                                                                    
                           
<?xpacket end="w"?></metadata>
<defs>
    <style>
      .cls-1 {
        fill: #333;
        fill-rule: evenodd;
      }
    </style>
  </defs>
  <path id="wishlist" class="cls-1" d="M9.993,20a0.809,0.809,0,0,1-.588-0.265L1.658,11.382A6.288,6.288,0,0,1,0,7.085a6.268,6.268,0,0,1,1.651-4.3,5.378,5.378,0,0,1,8.012.009l0.344,0.371L10.342,2.8a5.382,5.382,0,0,1,8.012,0A6.264,6.264,0,0,1,20,7.1a6.291,6.291,0,0,1-1.655,4.3l-7.764,8.34A0.807,0.807,0,0,1,9.993,20ZM5.649,2.76A3.824,3.824,0,0,0,2.83,4.021,4.464,4.464,0,0,0,1.654,7.085a4.487,4.487,0,0,0,1.179,3.068l7.16,7.719,7.176-7.706A4.465,4.465,0,0,0,18.345,7.1,4.489,4.489,0,0,0,17.17,4.03a3.792,3.792,0,0,0-5.652,0l-0.924,1a0.793,0.793,0,0,1-1.18,0l-0.932-1A3.838,3.838,0,0,0,5.649,2.76Z" transform="translate(0 -1)"/>
</svg>
