<svg xmlns="http://www.w3.org/2000/svg" width="58" height="54" viewBox="0 0 58 54">
  <metadata><?xpacket begin="﻿" id="W5M0MpCehiHzreSzNTczkc9d"?>
<x:xmpmeta xmlns:x="adobe:ns:meta/" x:xmptk="Adobe XMP Core 5.6-c138 79.159824, 2016/09/14-01:09:01        ">
   <rdf:RDF xmlns:rdf="http://www.w3.org/1999/02/22-rdf-syntax-ns#">
      <rdf:Description rdf:about=""/>
   </rdf:RDF>
</x:xmpmeta>
                                                                                               
                                                                                                    
                           
<?xpacket end="w"?></metadata>
<defs>
    <style>
      .cls-2 {
        fill-rule: evenodd;
        opacity: 0.02;
      }
    </style>
  </defs>
  <path id="wishlist" class="cls-2" d="M1480.98,86a2.356,2.356,0,0,1-1.7-.754l-22.47-23.737a17.964,17.964,0,0,1-.03-24.437,15.816,15.816,0,0,1,23.24.025l1,1.055,0.97-1.03a15.829,15.829,0,0,1,23.24-.013,18.009,18.009,0,0,1-.03,24.45l-22.51,23.7A2.384,2.384,0,0,1,1480.98,86ZM1468.38,37a11.172,11.172,0,0,0-8.17,3.584,12.825,12.825,0,0,0,.01,17.428l20.76,21.94,20.81-21.9a12.855,12.855,0,0,0,0-17.44,11.146,11.146,0,0,0-16.39.013l-2.68,2.831a2.33,2.33,0,0,1-3.42,0l-2.7-2.856A11.257,11.257,0,0,0,1468.38,37Z" transform="translate(-1452 -32)"/>
</svg>
