<svg xmlns="http://www.w3.org/2000/svg" width="22" height="62" viewBox="0 0 22 62">
  <metadata><?xpacket begin="﻿" id="W5M0MpCehiHzreSzNTczkc9d"?>
<x:xmpmeta xmlns:x="adobe:ns:meta/" x:xmptk="Adobe XMP Core 5.6-c138 79.159824, 2016/09/14-01:09:01        ">
   <rdf:RDF xmlns:rdf="http://www.w3.org/1999/02/22-rdf-syntax-ns#">
      <rdf:Description rdf:about=""/>
   </rdf:RDF>
</x:xmpmeta>
                                                                                                    
                                                                                                    
                                                                                                    
                                                                                                    
                                                                                                    
                                                                                                    
                                                                                                    
                                                                                                    
                                                                                                    
                                                                                                    
                                                                                                    
                                                                                                    
                                                                                                    
                                                                                                    
                                                                                                    
                                                                                                    
                                                                                                    
                                                                                                    
                                                                                                    
                                                                                                    
                           
<?xpacket end="w"?></metadata>
<defs>
    <style>
      .cls-1 {
        fill: #e4e4e4;
        fill-rule: evenodd;
      }
    </style>
  </defs>
  <path id="icon" class="cls-1" d="M757.469,223.032l2.245,0.222a7.8,7.8,0,0,0,1.01.443l0.562,0.776q0.056,0.333.112,0.664h0.112v0.333h0.112V225.8h0.113c0.074,0.368.149,0.738,0.224,1.107h0.112v0.443h0.113q0.056,1.995.112,3.989c0,2.856.011,5.674-.225,8.309h0.786v0.111h-0.112v0.665h-0.112c-0.038.221-.075,0.443-0.113,0.665h-0.112v0.221H762.3v0.332h-0.112v0.222l-0.225.111c-0.037.148-.075,0.295-0.112,0.443l-0.225.111v0.222l-0.336.221c-0.038.48-.075,0.961-0.113,1.44-0.191.645-.257,1.584-0.449,2.216V247.3h-0.112c-0.075.222-.15,0.443-0.224,0.665h-0.113v-0.332a2.285,2.285,0,0,0,.449-1.108v-0.776a12.483,12.483,0,0,0,.449-2.88,1.753,1.753,0,0,0-.673-0.111v0.111h-0.561c-0.139.244-.318,0.39-0.449,0.665h-0.113c0.013-.351.22-0.209-0.112-0.333v-1.773h0.112q0.057-.72.113-1.44v-2.77a11.841,11.841,0,0,0,.112-2.659v-1H759.49c-0.038-.148-0.075-0.3-0.113-0.444h-0.224q-0.168.5-.337,1-0.056.665-.112,1.329h-0.112q0.056,1.219.112,2.438h0.112a1.178,1.178,0,0,1-.337.775,0.28,0.28,0,0,0,.113.333q0.056,1.107.112,2.215c-0.187.038-.374,0.074-0.561,0.111a10.308,10.308,0,0,0,.673,2.881,0.747,0.747,0,0,1,.337-0.332v0.221a5.831,5.831,0,0,0-1.01,2.992,1.264,1.264,0,0,0,.673-0.887h0.225V246.3a3.983,3.983,0,0,0-.562,1.551h-0.112v0.443h-0.112c0.037,0.148.075,0.295,0.112,0.444h0.225l0.336-.554h0.113v0.332h-0.113v0.554c0.575-.15.29-0.374,0.562-0.554h0.336V248.4l0.337-.221V248.4a1.1,1.1,0,0,0-.449,1.329c0.333,1.124-.031,2.884.337,3.989v0.444h0.112V254.5h0.112v0.221h0.113q0.111,0.553.224,1.108h0.112v0.332h0.113v0.333h0.112c0.037,0.259.075,0.517,0.112,0.776h0.112V258.6l0.225,0.111v0.221l0.224,0.111v0.222h0.113v0.222h0.112v0.332h0.112v0.332h0.112v0.333h0.113v0.443H762.3v0.443h0.112l0.225,1.33h0.112v0.443h0.112q0.168,0.72.337,1.44h0.112V264.8h0.112v0.442h0.113v0.333h0.112v0.333h0.112v0.332h0.112v0.332h0.113q0.111,0.5.224,1h0.112V267.9h0.112v0.332h0.113v0.333h0.112V268.9h0.112v0.332h0.112q-0.111,1.164-.224,2.327h0.112a4.542,4.542,0,0,1,.337.886H764.99v-0.111c-0.349-.313-0.027-0.47-0.674-0.554a5.23,5.23,0,0,1-1.683.554q0.224,0.666.449,1.33h-0.113v-0.222a1.808,1.808,0,0,1-.449-1l-3.928.111a12.2,12.2,0,0,0-.449-1.772q-0.057-.555-0.113-1.108h-0.112v-0.444h-0.112V268.68h-0.112v-0.555h-0.113c-0.037-.332-0.074-0.665-0.112-1h-0.112q-0.055-.553-0.112-1.108c-0.357-1.079-.545-2.464-0.9-3.545q-0.225-1.329-.449-2.659c-0.681-2.122-.895-4.631-1.572-6.758V252.5c-0.456-1.39-.58-3.215-1.122-4.542-0.259-.633-0.3-1.259-1.01-1.44a22.15,22.15,0,0,0-.337,2.991c-0.037.259-.075,0.517-0.112,0.776a12.587,12.587,0,0,1,.112,3.213,19.674,19.674,0,0,0-.112,2.88c-0.085.968-.111,2.294-0.112,3.435,0,1.227-.33,2.822,0,3.988,0.181,0.641-.05,1.645.112,2.216v1.773h0.112v1.772a6.063,6.063,0,0,1,.112,2.106h-0.112c-0.037.259-.075,0.517-0.112,0.775l-0.337.111v1.108h0.112V275h0.113a2.478,2.478,0,0,1,0,1.218l-0.449.333v0.11h-0.225l-0.112.222h-0.225v0.111a3.534,3.534,0,0,1-1.683-.776v-0.221a1.741,1.741,0,0,1-.113-1v-0.333h0.113v-1.994l-2.133-.887v-0.11h-0.224V271.56c-0.429-.195-0.521.093-0.674-0.443a2.759,2.759,0,0,0,.112-1.33v-3.434a18.963,18.963,0,0,0,.112-4.321V260.7a15.207,15.207,0,0,0,.113-3.434V250.62a0.521,0.521,0,0,1-.449-0.332h0.224a0.445,0.445,0,0,0,.225.221v-0.665a5.008,5.008,0,0,1-1.235-1.772l0.112-.333,0.337-.11v0.11a4.26,4.26,0,0,1,.225,1.108H745.8l0.112,0.333h0.112v-3.1h0.112v-0.11H746.02a1.642,1.642,0,0,0-1.01-1.441v0.111a2.782,2.782,0,0,0-.224,1h-0.113v0.554h-0.112q-0.113.665-.224,1.33h-0.113v0.332h-0.112c-0.027.227,0.049,0.13,0.112,0.222,0.1,0.4.342,0.49,0.449,0.886h-0.112v-0.111h-0.112a1.779,1.779,0,0,0-.449-0.664,3.447,3.447,0,0,1,.337-1.219v-0.443h0.112c0.037-.333.075-0.665,0.112-1h0.112a6.1,6.1,0,0,1,.225-1.108h-0.112v-0.11h-0.449a16.859,16.859,0,0,1,.561-3.324h0.449q0.786-2.049,1.571-4.1,0.113-.774.225-1.551h0.112q0.113-.665.224-1.329h0.113v-0.332H747.7q0.113-.555.224-1.108h0.113v-0.444h0.112v-0.443h0.112v-0.665c0.467-1.52.539-3.383,1.123-4.764l0.673-.221,0.112-.221,0.449-.111,0.113-.222h0.224c0.038-.074.075-0.148,0.112-0.222H751.3a1.291,1.291,0,0,1,.224-0.221,0.961,0.961,0,0,0-.673-0.222,2.952,2.952,0,0,1-1.235-1c0.633-.152.481-0.807,0.449-1.551a4.827,4.827,0,0,1-.224-1.441h-0.113v-0.664c-0.467-1.6-.284-3.783.9-4.432h0.337v-0.111H751.3V215.5h0.561a2.843,2.843,0,0,1,1.908-.444c1.624,0.511,2.353,2.524,2.919,4.1V219.6H756.8v0.332h0.112v0.444h0.112a4.68,4.68,0,0,0,.225.886l0.336,0.221v0.111h0.449V221.7h-0.112c-0.037.221-.075,0.443-0.112,0.665h-0.112Zm-3.592-5.761a0.918,0.918,0,0,1-.448-0.221v-0.112l-1.011-.221-1.459,1.33v0.775h-0.112q0.056,1.053.112,2.1h0.112c0.038,0.259.075,0.518,0.113,0.776q0.672,0.72,1.347,1.44a3.09,3.09,0,0,1,.673.443v1a2.181,2.181,0,0,0-.786,1.884,3.576,3.576,0,0,1,.561,1.108h0.113V227.8a4.057,4.057,0,0,1,.561,1.108,0.193,0.193,0,0,0,.112-0.11,2.236,2.236,0,0,0,.225-0.887H754.1v-0.443h0.112v-0.332h0.112V226.8h0.113v-0.333h0.112c0.037-.148.075-0.3,0.112-0.443l0.449-.332V225.47l0.225-.111v-0.222l0.224-.11c0.038-.148.075-0.3,0.112-0.444l0.225-.11q0.225-.611.449-1.219a2.391,2.391,0,0,1-.9-0.443V220.6h-0.112c-0.038-.258-0.075-0.517-0.113-0.776h-0.112V219.6H755v-0.332h-0.112v-0.333h-0.113c-0.074-.222-0.149-0.443-0.224-0.665h-0.112c-0.038-.147-0.075-0.295-0.113-0.443h-0.112A1.258,1.258,0,0,1,753.877,217.271Zm5.388,26.259h0.112v0.11c-0.037.074-.074,0.148-0.112,0.222h-0.112C759.19,243.751,759.228,243.64,759.265,243.53Zm-14.03,4.32a0.742,0.742,0,0,0,.336.776v-0.111h-0.112V247.85h-0.224Zm14.928,0.111c0.128,0.126.045,0,.112,0.222h-0.112v-0.222Zm-14.031.222a7.447,7.447,0,0,0,0,1.44h0.113A2.94,2.94,0,0,0,746.132,248.183Zm-1.459.775a0.519,0.519,0,0,1,.337.443H744.9v-0.11h-0.112Zm0.337,0.443a1.61,1.61,0,0,1,.786.887h-0.112A3.329,3.329,0,0,1,745.01,249.4ZM765.1,272.446c0.128,0.127.045,0,.112,0.222H765.1v-0.222Zm-16.051,2.327c0.666,0.059,1.535.11,2.357,0.111q-0.056-1.164-.112-2.327h-2.133A7.653,7.653,0,0,0,749.051,274.773Zm16.163-2.105c0.128,0.126.045,0,.112,0.221h-0.112v-0.221Zm-1.908,2.216L763.98,275v-0.111H764.2v-0.111h0.224l0.113-.222h0.224l0.112-.221H765.1l0.224-.332c0.075-.037.15-0.075,0.225-0.111v-0.444a0.629,0.629,0,0,1-.225-0.554h0.113v0.222a4.476,4.476,0,0,1,.561,2.327c-0.737.483-.716,1.3-2.02,1.329l-0.225-.332h-0.112v-0.222l-0.225-.11a3.694,3.694,0,0,0-.336-0.444q0.056-.831.112-1.661h-0.112v-0.333h0.112v0.222A1.749,1.749,0,0,1,763.306,274.884Z" transform="translate(-744 -215)"/>
</svg>
